HIERARCHY
ROOT hip
{
  OFFSET -9.51422 85.3739 7.8081
  CHANNELS 6 Xposition Yposition Zposition Zrotation Xrotation Yrotation
  JOINT abdomen
  {
    OFFSET 0 20.6881 -0.73152
    CHANNELS 3 Zrotation Xrotation Yrotation
    JOINT chest
    {
      OFFSET 0 11.7043 -0.48768
      CHANNELS 3 Zrotation Xrotation Yrotation
      JOINT neck
      {
        OFFSET 0 22.1894 -2.19456
        CHANNELS 3 Zrotation Xrotation Yrotation
        JOINT head
        {
          OFFSET -0.24384 7.07133 1.2192
          CHANNELS 3 Zrotation Xrotation Yrotation
          JOINT leftEye
          {
            OFFSET 4.14528 8.04674 8.04672
            CHANNELS 3 Zrotation Xrotation Yrotation
            End Site
            {
              OFFSET 1 0 0
            }
          }
          JOINT rightEye
          {
            OFFSET -3.6576 8.04674 8.04672
            CHANNELS 3 Zrotation Xrotation Yrotation
            End Site
            {
              OFFSET 1 0 0
            }
          }
        }
      }
      JOINT rCollar
      {
        OFFSET -2.68224 19.2634 -4.8768
        CHANNELS 3 Zrotation Xrotation Yrotation
        JOINT rShldr
        {
          OFFSET -8.77824 -1.95073 1.46304
          CHANNELS 3 Zrotation Xrotation Yrotation
          JOINT rForeArm
          {
            OFFSET -28.1742 -1.7115 0.48768
            CHANNELS 3 Zrotation Xrotation Yrotation
            JOINT rHand
            {
              OFFSET -22.5879 0.773209 7.07136
              CHANNELS 3 Zrotation Xrotation Yrotation
              JOINT rThumb1
              {
                OFFSET -1.2192 -0.487915 3.41376
                CHANNELS 3 Zrotation Xrotation Yrotation
                JOINT rThumb2
                {
                  OFFSET -3.37035 -0.52449 3.41376
                  CHANNELS 3 Zrotation Xrotation Yrotation
                  End Site
                  {
                    OFFSET -1.78271 -1.18214 1.43049
                  }
                }
              }
              JOINT rIndex1
              {
                OFFSET -7.75947 0.938293 5.60832
                CHANNELS 3 Zrotation Xrotation Yrotation
                JOINT rIndex2
                {
                  OFFSET -2.54057 -0.884171 1.56538
                  CHANNELS 3 Zrotation Xrotation Yrotation
                  End Site
                  {
                    OFFSET -1.62519 -0.234802 1.16502
                  }
                }
              }
              JOINT rMid1
              {
                OFFSET -8.24714 1.18213 3.41376
                CHANNELS 3 Zrotation Xrotation Yrotation
                JOINT rMid2
                {
                  OFFSET -3.10165 -0.590103 1.0647
                  CHANNELS 3 Zrotation Xrotation Yrotation
                  End Site
                  {
                    OFFSET -2.48547 -0.328903 0.83742
                  }
                }
              }
              JOINT rRing1
              {
                OFFSET -8.82822 0.546677 1.51678
                CHANNELS 3 Zrotation Xrotation Yrotation
                JOINT rRing2
                {
                  OFFSET -2.60934 -0.819778 -0.0198488
                  CHANNELS 3 Zrotation Xrotation Yrotation
                  End Site
                  {
                    OFFSET -2.33842 -0.294052 0.168128
                  }
                }
              }
              JOINT rPinky1
              {
                OFFSET -8.27202 -0.0477905 -0.4584
                CHANNELS 3 Zrotation Xrotation Yrotation
                JOINT rPinky2
                {
                  OFFSET -1.82734 -0.647385 -0.700984
                  CHANNELS 3 Zrotation Xrotation Yrotation
                  End Site
                  {
                    OFFSET -1.69225 -0.51767 -0.607171
                  }
                }
              }
            }
          }
        }
      }
      JOINT lCollar
      {
        OFFSET 2.68224 19.2634 -4.8768
        CHANNELS 3 Zrotation Xrotation Yrotation
        JOINT lShldr
        {
          OFFSET 8.77824 -1.95073 1.46304
          CHANNELS 3 Zrotation Xrotation Yrotation
          JOINT lForeArm
          {
            OFFSET 28.1742 -1.7115 0.48768
            CHANNELS 3 Zrotation Xrotation Yrotation
            JOINT lHand
            {
              OFFSET 22.5879 0.773209 7.07136
              CHANNELS 3 Zrotation Xrotation Yrotation
              JOINT lThumb1
              {
                OFFSET 1.2192 -0.487915 3.41376
                CHANNELS 3 Zrotation Xrotation Yrotation
                JOINT lThumb2
                {
                  OFFSET 3.37035 -0.52449 3.41376
                  CHANNELS 3 Zrotation Xrotation Yrotation
                  End Site
                  {
                    OFFSET 1.78271 -1.18214 1.43049
                  }
                }
              }
              JOINT lIndex1
              {
                OFFSET 7.75947 0.938293 5.60832
                CHANNELS 3 Zrotation Xrotation Yrotation
                JOINT lIndex2
                {
                  OFFSET 2.54057 -0.884171 1.56538
                  CHANNELS 3 Zrotation Xrotation Yrotation
                  End Site
                  {
                    OFFSET 1.62519 -0.234802 1.16502
                  }
                }
              }
              JOINT lMid1
              {
                OFFSET 8.24714 1.18213 3.41376
                CHANNELS 3 Zrotation Xrotation Yrotation
                JOINT lMid2
                {
                  OFFSET 3.10165 -0.590103 1.0647
                  CHANNELS 3 Zrotation Xrotation Yrotation
                  End Site
                  {
                    OFFSET 2.48547 -0.328903 0.83742
                  }
                }
              }
              JOINT lRing1
              {
                OFFSET 8.82822 0.546677 1.51678
                CHANNELS 3 Zrotation Xrotation Yrotation
                JOINT lRing2
                {
                  OFFSET 2.60934 -0.819778 -0.0198488
                  CHANNELS 3 Zrotation Xrotation Yrotation
                  End Site
                  {
                    OFFSET 2.33842 -0.294052 0.168128
                  }
                }
              }
              JOINT lPinky1
              {
                OFFSET 8.27202 -0.0477905 -0.4584
                CHANNELS 3 Zrotation Xrotation Yrotation
                JOINT lPinky2
                {
                  OFFSET 1.82734 -0.647385 -0.700984
                  CHANNELS 3 Zrotation Xrotation Yrotation
                  End Site
                  {
                    OFFSET 1.69225 -0.51767 -0.607171
                  }
                }
              }
            }
          }
        }
      }
    }
  }
  JOINT rButtock
  {
    OFFSET -8.77824 4.35084 1.2192
    CHANNELS 3 Zrotation Xrotation Yrotation
    JOINT rThigh
    {
      OFFSET 0 -1.70687 -2.19456
      CHANNELS 3 Zrotation Xrotation Yrotation
      JOINT rShin
      {
        OFFSET 0 -36.8199 0.73152
        CHANNELS 3 Zrotation Xrotation Yrotation
        JOINT rFoot
        {
          OFFSET 0.73152 -45.1104 -5.12064
          CHANNELS 3 Zrotation Xrotation Yrotation
          End Site
          {
            OFFSET -1.1221 -3.69964 12.103
          }
        }
      }
    }
  }
  JOINT lButtock
  {
    OFFSET 8.77824 4.35084 1.2192
    CHANNELS 3 Zrotation Xrotation Yrotation
    JOINT lThigh
    {
      OFFSET 0 -1.70687 -2.19456
      CHANNELS 3 Zrotation Xrotation Yrotation
      JOINT lShin
      {
        OFFSET 0 -36.8199 0.73152
        CHANNELS 3 Zrotation Xrotation Yrotation
        JOINT lFoot
        {
          OFFSET -0.73152 -45.1104 -5.12064
          CHANNELS 3 Zrotation Xrotation Yrotation
          End Site
          {
            OFFSET 1.1221 -3.69964 12.103
          }
        }
      }
    }
  }
}
MOTION
Frames:	4
Frame Time:	0.00833333
16.5092 85.1968 -0.617747 -0.44382 -0.00111774 0.00758106 0.583973 -0.00303825 0.0166887 0.161172 -0.0046852 0.0279255 3.57548e-015 7.95139e-016 1.73937e-016 1.0871e-014 9.54166e-015 5.23363e-016 -0 0 0 -0 0 0 1.6883e-015 -1.66948e-017 1.98785e-016 3.93487e-014 -3.60297e-016 3.18055e-015 6.5748e-013 -2.05742e-013 1.90833e-014 7.50474e-012 1.4715e-013 3.84847e-013 1.7707e-011 -1.29957e-013 8.77833e-013 3.05751e-011 -2.29e-013 1.51235e-012 1.77133e-011 -1.2921e-013 8.6193e-013 7.73091 5.47488 0.417314 1.77074e-011 -1.30403e-013 8.77833e-013 2.90554 0.965183 0.102902 1.77134e-011 -1.29707e-013 8.74653e-013 10.2786 0.731801 0.0259123 1.77014e-011 -1.2762e-013 8.84194e-013 2.22167 -0.733487 -0.20892 1.59176e-015 -1.78596e-017 0 3.5818e-014 -1.49089e-016 9.93923e-016 6.54002e-013 1.88647e-013 3.18055e-014 7.50785e-012 -2.46741e-013 3.75305e-013 1.77127e-011 -1.28864e-013 8.81014e-013 3.0591e-011 -2.29e-013 1.51951e-012 1.77065e-011 -1.26029e-013 8.96916e-013 -7.73091 5.47488 -0.417314 1.77127e-011 -1.28812e-013 8.84194e-013 -2.90554 0.965183 -0.102902 1.77065e-011 -1.28713e-013 8.80219e-013 -10.2786 0.731801 -0.0259123 1.77157e-011 -1.26825e-013 8.74653e-013 -2.22167 -0.733487 0.20892 -2.03217e-016 0 -3.88251e-019 0.939922 -4.56522 -0.078754 -0.00191252 2.71744 -0.00753784 -0.500969 1.84802 0.0947507 2.03217e-016 0 3.88251e-019 -0.050827 -2.31867 0.0217198 0.00816063 -1.35177 0.0697888 0.492851 3.67058 -0.130815 
14.0021 84.0296 -0.831671 -0.6268 -0.786088 -9.0889 -1.08818 0.988218 -0.0737699 0.486186 -0.317977 -0.00892834 -2.13466 2.86849 -0.811589 3.71779 -5.73649 -0.748334 -0 0 0 -0 0 0 1.80731e-014 2.42331e-014 1.23145e-013 18.4948 8.45483 -1.44049 -7.43894 -4.41014 10.311 0.0291732 3.79545 0.529217 -3.26676e-010 4.59967e-010 -8.98767e-011 -5.65346e-010 7.97114e-010 -1.50206e-010 -3.26668e-010 4.59968e-010 -8.98918e-011 7.73091 5.47488 0.417314 -3.26675e-010 4.59966e-010 -8.98757e-011 2.90554 0.965183 0.102902 -3.26669e-010 4.59967e-010 -8.98789e-011 10.2786 0.731801 0.0259123 -3.26682e-010 4.5997e-010 -8.98712e-011 2.22167 -0.733487 -0.20892 1.79896e-014 2.42359e-014 1.22946e-013 -19.9477 16.9656 -1.61611 5.90479 -3.1332 -8.68145 -0.000368354 0.439704 -0.0617907 2.79241e-011 -8.82151e-010 -3.40361e-010 4.81012e-011 -1.52764e-009 -5.89848e-010 2.79178e-011 -8.82148e-010 -3.40347e-010 -7.73091 5.47488 -0.417314 2.7924e-011 -8.8215e-010 -3.40357e-010 -2.90554 0.965183 -0.102902 2.79173e-011 -8.82151e-010 -3.4036e-010 -10.2786 0.731801 -0.0259123 2.79257e-011 -8.8215e-010 -3.40362e-010 -2.22167 -0.733487 0.20892 -2.03217e-016 0 -3.88251e-019 -1.54944 -8.9796 3.04487 0.000219627 12.4503 0.14038 -0.898717 -1.63233 -3.64825 2.03217e-016 0 3.88251e-019 -0.948123 -2.62876 -0.662418 -0.027476 6.47389 -0.0975843 0.940104 -2.85109 3.56473 
13.8521 84.0383 -0.73175 -1.08778 -1.54601 -18.7016 -2.85175 2.03311 -0.165729 0.826699 -0.649647 -0.0468511 -4.30368 5.8968 -1.68087 7.48509 -11.7851 -1.57427 -0 0 0 -0 0 0 3.64479e-014 5.23563e-014 2.6075e-013 38.6021 17.4228 -3.07982 -13.4972 -8.4804 21.2948 -0.0168261 7.78361 1.09323 -7.058e-010 9.70391e-010 -1.84256e-010 -1.22127e-009 1.68153e-009 -3.0769e-010 -7.05792e-010 9.70393e-010 -1.84271e-010 7.73091 5.47488 0.417314 -7.058e-010 9.7039e-010 -1.84254e-010 2.90554 0.965183 0.102902 -7.05793e-010 9.70391e-010 -1.84257e-010 10.2786 0.731801 0.0259123 -7.05806e-010 9.70395e-010 -1.84252e-010 2.22167 -0.733487 -0.20892 3.6378e-014 5.23633e-014 2.60551e-013 -39.7935 34.8647 -3.88009 11.1188 -6.19886 -17.9304 0.000283914 0.89185 -0.125343 2.42896e-011 -1.84914e-009 -7.17331e-010 4.16219e-011 -3.20209e-009 -1.24305e-009 2.42832e-011 -1.84914e-009 -7.17319e-010 -7.73091 5.47488 -0.417314 2.42894e-011 -1.84914e-009 -7.17326e-010 -2.90554 0.965183 -0.102902 2.42823e-011 -1.84914e-009 -7.17328e-010 -10.2786 0.731801 -0.0259123 2.42897e-011 -1.84914e-009 -7.17327e-010 -2.22167 -0.733487 0.20892 -2.03217e-016 0 -3.88251e-019 -3.63719 -13.5835 6.43764 -0.056431 22.7593 0.314907 -1.81487 -5.28034 -7.63169 2.03217e-016 0 3.88251e-019 -1.90557 -2.97445 -1.38857 -0.0140992 14.7604 -0.282616 2.33385 -9.67062 7.56363 
13.6882 84.0474 -0.637344 -1.70959 -2.12052 -27.2995 -4.4231 2.9707 -0.254997 1.13501 -0.944559 -0.0826469 -6.15792 8.59852 -2.45938 10.6861 -17.1974 -2.33836 -0 0 0 -0 0 0 5.08428e-014 7.27327e-014 3.69037e-013 56.8733 25.2968 -4.72884 -17.7333 -11.517 31.5461 -0.126385 11.3824 1.61596 -1.01544e-009 1.38016e-009 -2.71386e-010 -1.75719e-009 2.3918e-009 -4.53643e-010 -1.01543e-009 1.38016e-009 -2.71399e-010 7.73091 5.47488 0.417314 -1.01544e-009 1.38016e-009 -2.71383e-010 2.90554 0.965183 0.102902 -1.01543e-009 1.38016e-009 -2.71386e-010 10.2786 0.731801 0.0259123 -1.01545e-009 1.38017e-009 -2.71382e-010 2.22167 -0.733487 -0.20892 5.07853e-014 7.27435e-014 3.68838e-013 -55.5737 50.6856 -7.33123 14.9488 -8.53804 -26.3188 0.00174077 1.31911 -0.185416 4.83469e-011 -2.64619e-009 -1.02284e-009 8.31215e-011 -4.58248e-009 -1.77258e-009 4.83403e-011 -2.64619e-009 -1.02283e-009 -7.73091 5.47488 -0.417314 4.83466e-011 -2.64619e-009 -1.02284e-009 -2.90554 0.965183 -0.102902 4.8339e-011 -2.64619e-009 -1.02284e-009 -10.2786 0.731801 -0.0259123 4.83457e-011 -2.6462e-009 -1.02284e-009 -2.22167 -0.733487 0.20892 -2.03217e-016 0 -3.88251e-019 -5.02764 -17.6097 9.63507 -0.169514 31.9152 0.502216 -3.06089 -8.43998 -11.2531 2.03217e-016 0 3.88251e-019 -2.76496 -3.24743 -2.03183 0.0465316 22.1246 -0.464638 4.41599 -15.6143 11.3668 
